<?xml version="1.0" encoding="utf-8"?>
<!-- Generator: Adobe Illustrator 16.0.3, SVG Export Plug-In . SVG Version: 6.00 Build 0)  -->
<!DOCTYPE svg PUBLIC "-//W3C//DTD SVG 1.1//EN" "http://www.w3.org/Graphics/SVG/1.1/DTD/svg11.dtd">
<svg version="1.1" id="Layer_1" xmlns="http://www.w3.org/2000/svg" xmlns:xlink="http://www.w3.org/1999/xlink" x="0px" y="0px"
	 width="879px" height="72px" viewBox="0 0 879 72" enable-background="new 0 0 879 72" xml:space="preserve">
<path d="M57.878,61.47c-3.064,1.82-9.828,2.276-13.87,2.276c-17.242,0-26.513-11.385-26.513-27.359
	c0-15.724,9.553-27.352,26.513-27.352c5.729,0,11.706,0.634,16.791,3.358l0.756-5.819c-4.42-2.186-12.562-2.988-17.546-2.988
	c-20.254,0-32.992,13.522-32.992,32.8c0,19.639,12.366,32.792,32.992,32.792c7.221,0,13.702-1.063,20.365-3.896V33.76H42.696v5.443
	h15.182V61.47z M79.411,68.115h6.267l7.031-17.019h32.998l7.013,17.019h6.769L113.521,4.673h-7.333L79.411,68.115z M123.541,45.64
	h-28.39l14.234-34.964L123.541,45.64z M155.727,68.115h32.668v-5.457h-26.244V4.673h-6.425V68.115z M204.829,68.115h32.716v-5.457
	H211.29V4.673h-6.461V68.115z M254.504,68.115h33.178v-5.457h-26.706V38.205h24.275v-5.451h-24.275V10.119h25.575V4.673h-32.048
	V68.115z M315.528,10.119h6.651c8.899,0,16.512,0.634,16.512,11.014c0,8.797-8.751,11.622-16.33,11.622h-6.833V10.119z
	 M309.075,68.115h6.453v-29.91h5.347c6.195,0,8.995,0.276,12.746,8.451l9.459,21.459h7.145l-11.159-24.563
	c-2.063-4.265-3.201-6.985-8.443-7.625v-0.19c8.069-0.996,14.546-6.439,14.546-14.604c0-11.646-7.613-16.46-19.218-16.46h-16.875
	V68.115z M380.582,68.115h6.463V41.199l24.277-36.526h-7.057L383.75,35.649L363.774,4.673h-7.501l24.309,36.526V68.115z
	 M428.309,68.115h13.142V40.291h26.233v27.824h13.118V4.673h-13.118v25.629H441.45V4.673h-13.142V68.115z M516.771,68.115h13.134
	v-25.1l23.442-38.343h-13.861l-15.763,26.629l-15.47-26.629h-15.374l23.892,38.343V68.115z M564.94,45.184
	c0,17.007,9.949,23.995,26.704,23.995c16.817,0,26.735-6.988,26.735-23.995V4.673h-13.118v36.61c0,10.838-3.58,17.923-13.617,17.923
	c-10.014,0-13.578-7.085-13.578-17.923V4.673H564.94V45.184z M639.927,68.115h12.589V20.663h0.164l25.02,47.453h16.055V4.673h-12.57
	v47.448h-0.204L656.064,4.673h-16.138V68.115z M715.765,68.115h17.918c20.079,0,37.785-6.577,37.785-31.729
	c0-25.163-17.706-31.714-37.785-31.714h-17.918V68.115z M728.898,14.672h7.297c10.985,0,21.583,7.903,21.583,21.715
	c0,13.806-10.598,21.711-21.583,21.711h-7.297V14.672z M818.502,43.552h-19.118l9.465-26.162h0.188L818.502,43.552z M776.328,68.115
	h13.61l5.708-14.566h26.524l5.624,14.566h14.526L816.649,4.673h-14.817L776.328,68.115z M853.866,68.115h13.118V4.683h-13.118
	V68.115z"/>
</svg>
